<svg xmlns="http://www.w3.org/2000/svg" xmlns:xlink="http://www.w3.org/1999/xlink" viewBox="0 0 171.7 171.7"><defs><style>.cls-1{isolation:isolate;}.cls-2{opacity:0.33;mix-blend-mode:multiply;}.cls-156,.cls-3{fill:#fff;}.cls-3{opacity:0;}.cls-4,.cls-5{fill:#fefefe;}.cls-4{opacity:0.01;}.cls-5{opacity:0.01;}.cls-6,.cls-7{fill:#fdfdfd;}.cls-6{opacity:0.02;}.cls-7{opacity:0.03;}.cls-8,.cls-9{fill:#fcfcfc;}.cls-8{opacity:0.03;}.cls-9{opacity:0.04;}.cls-10{fill:#fbfbfb;opacity:0.05;}.cls-11{fill:#fafafb;opacity:0.05;}.cls-12{fill:#fafafa;opacity:0.06;}.cls-13{fill:#f9f9fa;opacity:0.07;}.cls-14{fill:#f9f9f9;opacity:0.07;}.cls-15{fill:#f8f8f8;opacity:0.08;}.cls-16{fill:#f7f8f8;opacity:0.09;}.cls-17{fill:#f7f7f7;opacity:0.09;}.cls-18{fill:#f6f6f7;opacity:0.1;}.cls-19{fill:#f6f6f6;opacity:0.11;}.cls-20{fill:#f5f5f6;opacity:0.11;}.cls-21{fill:#f5f5f5;opacity:0.12;}.cls-22{fill:#f4f4f5;opacity:0.13;}.cls-23{fill:#f3f4f4;opacity:0.13;}.cls-24{fill:#f3f3f3;opacity:0.14;}.cls-25{fill:#f2f2f3;opacity:0.15;}.cls-26{fill:#f2f2f2;opacity:0.15;}.cls-27{fill:#f1f1f2;opacity:0.16;}.cls-28{fill:#f0f1f1;opacity:0.17;}.cls-29{fill:#f0f0f1;opacity:0.17;}.cls-30{fill:#eff0f0;opacity:0.18;}.cls-31{fill:#efeff0;opacity:0.19;}.cls-32,.cls-33{fill:#eeeeef;}.cls-32{opacity:0.19;}.cls-33{opacity:0.2;}.cls-34{fill:#ededee;opacity:0.21;}.cls-35{fill:#eceded;opacity:0.21;}.cls-36{fill:#ececed;opacity:0.22;}.cls-37{fill:#ebecec;opacity:0.23;}.cls-38{fill:#ebebec;opacity:0.23;}.cls-39{fill:#eaeaeb;opacity:0.24;}.cls-40{fill:#e9eaeb;opacity:0.25;}.cls-41{fill:#e9e9ea;opacity:0.25;}.cls-42{fill:#e8e9ea;opacity:0.26;}.cls-43{fill:#e8e8e9;opacity:0.26;}.cls-44{fill:#e7e8e8;opacity:0.27;}.cls-45{fill:#e7e7e8;opacity:0.28;}.cls-46{fill:#e6e7e7;opacity:0.28;}.cls-47{fill:#e5e6e7;opacity:0.29;}.cls-48{fill:#e5e5e6;opacity:0.3;}.cls-49{fill:#e4e5e6;opacity:0.3;}.cls-50{fill:#e4e4e5;opacity:0.31;}.cls-51{fill:#e3e4e5;opacity:0.32;}.cls-52,.cls-53{fill:#e2e3e4;}.cls-52{opacity:0.32;}.cls-53{opacity:0.33;}.cls-54{fill:#e1e2e3;opacity:0.34;}.cls-55{fill:#e1e1e2;opacity:0.34;}.cls-56{fill:#e0e1e2;opacity:0.35;}.cls-57{fill:#e0e0e1;opacity:0.36;}.cls-58{fill:#dfe0e1;opacity:0.36;}.cls-59,.cls-60{fill:#dedfe0;}.cls-59{opacity:0.37;}.cls-60{opacity:0.38;}.cls-61{fill:#dddedf;opacity:0.38;}.cls-62{fill:#dddddf;opacity:0.39;}.cls-63{fill:#dcddde;opacity:0.4;}.cls-64,.cls-65{fill:#dbdcdd;}.cls-64{opacity:0.4;}.cls-65{opacity:0.41;}.cls-66,.cls-67{fill:#dadbdc;}.cls-66{opacity:0.42;}.cls-67{opacity:0.42;}.cls-68{fill:#d9dadb;opacity:0.43;}.cls-69{fill:#d9d9db;opacity:0.44;}.cls-70{fill:#d8d9da;opacity:0.44;}.cls-71{fill:#d7d8da;opacity:0.45;}.cls-72{fill:#d7d8d9;opacity:0.46;}.cls-73{fill:#d6d7d9;opacity:0.46;}.cls-74{fill:#d6d7d8;opacity:0.47;}.cls-75{fill:#d5d6d7;opacity:0.48;}.cls-76{fill:#d4d5d7;opacity:0.48;}.cls-77{fill:#d4d5d6;opacity:0.49;}.cls-78{fill:#d3d4d6;opacity:0.5;}.cls-79{fill:#d3d4d5;opacity:0.5;}.cls-80{fill:#d2d3d5;opacity:0.51;}.cls-81{fill:#d2d3d4;opacity:0.52;}.cls-82{fill:#d1d2d4;opacity:0.52;}.cls-83{fill:#d0d1d3;opacity:0.53;}.cls-84{fill:#d0d1d2;opacity:0.54;}.cls-85{fill:#cfd0d2;opacity:0.54;}.cls-86{fill:#cfd0d1;opacity:0.55;}.cls-87{fill:#cecfd1;opacity:0.56;}.cls-88{fill:#cdcfd0;opacity:0.56;}.cls-89{fill:#cdced0;opacity:0.57;}.cls-90,.cls-91{fill:#cccdcf;}.cls-90{opacity:0.58;}.cls-91{opacity:0.58;}.cls-92,.cls-93{fill:#cbccce;}.cls-92{opacity:0.59;}.cls-93{opacity:0.6;}.cls-94{fill:#cacbcd;opacity:0.6;}.cls-95{fill:#c9cbcc;opacity:0.61;}.cls-96{fill:#c9cacc;opacity:0.62;}.cls-97,.cls-98{fill:#c8c9cb;}.cls-97{opacity:0.62;}.cls-98{opacity:0.63;}.cls-99{fill:#c7c8ca;opacity:0.64;}.cls-100{fill:#c6c8ca;opacity:0.64;}.cls-101{fill:#c6c7c9;opacity:0.65;}.cls-102{fill:#c5c7c9;opacity:0.66;}.cls-103{fill:#c5c6c8;opacity:0.66;}.cls-104,.cls-105{fill:#c4c5c7;}.cls-104{opacity:0.67;}.cls-105{opacity:0.68;}.cls-106{fill:#c3c4c6;opacity:0.68;}.cls-107{fill:#c2c4c6;opacity:0.69;}.cls-108{fill:#c2c3c5;opacity:0.7;}.cls-109{fill:#c1c3c5;opacity:0.7;}.cls-110{fill:#c1c2c4;opacity:0.71;}.cls-111{fill:#c0c1c4;opacity:0.72;}.cls-112{fill:#bfc1c3;opacity:0.72;}.cls-113{fill:#bfc0c3;opacity:0.73;}.cls-114{fill:#bec0c2;opacity:0.74;}.cls-115{fill:#bebfc1;opacity:0.74;}.cls-116{fill:#bdbfc1;opacity:0.75;}.cls-117{fill:#bdbec0;opacity:0.75;}.cls-118{fill:#bcbec0;opacity:0.76;}.cls-119{fill:#bbbdbf;opacity:0.77;}.cls-120{fill:#bbbcbf;opacity:0.77;}.cls-121{fill:#babcbe;opacity:0.78;}.cls-122{fill:#babbbe;opacity:0.79;}.cls-123{fill:#b9bbbd;opacity:0.79;}.cls-124,.cls-125{fill:#b8babc;}.cls-124{opacity:0.8;}.cls-125{opacity:0.81;}.cls-126{fill:#b7b9bb;opacity:0.81;}.cls-127{fill:#b7b8bb;opacity:0.82;}.cls-128{fill:#b6b8ba;opacity:0.83;}.cls-129{fill:#b6b7ba;opacity:0.83;}.cls-130{fill:#b5b7b9;opacity:0.84;}.cls-131{fill:#b4b6b9;opacity:0.85;}.cls-132{fill:#b4b6b8;opacity:0.85;}.cls-133{fill:#b3b5b8;opacity:0.86;}.cls-134{fill:#b3b4b7;opacity:0.87;}.cls-135{fill:#b2b4b6;opacity:0.87;}.cls-136{fill:#b1b3b6;opacity:0.88;}.cls-137{fill:#b1b3b5;opacity:0.89;}.cls-138{fill:#b0b2b5;opacity:0.89;}.cls-139{fill:#b0b2b4;opacity:0.9;}.cls-140{fill:#afb1b4;opacity:0.91;}.cls-141{fill:#afb0b3;opacity:0.91;}.cls-142{fill:#aeb0b3;opacity:0.92;}.cls-143{fill:#adafb2;opacity:0.93;}.cls-144{fill:#adafb1;opacity:0.93;}.cls-145{fill:#acaeb1;opacity:0.94;}.cls-146{fill:#acaeb0;opacity:0.95;}.cls-147{fill:#abadb0;opacity:0.95;}.cls-148,.cls-149{fill:#aaacaf;}.cls-148{opacity:0.96;}.cls-149{opacity:0.97;}.cls-150,.cls-151{fill:#a9abae;}.cls-150{opacity:0.97;}.cls-151{opacity:0.98;}.cls-152,.cls-153{fill:#a8aaad;}.cls-152{opacity:0.99;}.cls-153{opacity:0.99;}.cls-154{fill:#a7a9ac;}.cls-155{fill:url(#linear-gradient);}.cls-157{fill:#4285f4;}</style><linearGradient id="linear-gradient" x1="75.62" y1="96.08" x2="155.21" y2="16.49" gradientUnits="userSpaceOnUse"><stop offset="0" stop-color="#fff"/><stop offset="0.25" stop-color="#fbfbfb"/><stop offset="0.49" stop-color="#f0f0f1"/><stop offset="0.73" stop-color="#dddedf"/><stop offset="0.95" stop-color="#c2c4c6"/><stop offset="1" stop-color="#bcbec0"/></linearGradient></defs><g class="cls-1"><g id="Layer_1" data-name="Layer 1"><g class="cls-2"><path class="cls-3" d="M80,140.9a56.3,56.3,0,0,0,79.6,79.6Z" transform="translate(-63.7 -65.2)"/><path class="cls-4" d="M80.4,140.5A56.3,56.3,0,0,0,160,220.1Z" transform="translate(-63.7 -65.2)"/><path class="cls-5" d="M80.8,140.1a56.3,56.3,0,0,0,79.6,79.6Z" transform="translate(-63.7 -65.2)"/><path class="cls-6" d="M81.2,139.8a56.3,56.3,0,0,0,79.6,79.6Z" transform="translate(-63.7 -65.2)"/><path class="cls-7" d="M81.6,139.4A56.3,56.3,0,0,0,161.2,219Z" transform="translate(-63.7 -65.2)"/><path class="cls-8" d="M82,139a56.3,56.3,0,0,0,79.6,79.6Z" transform="translate(-63.7 -65.2)"/><path class="cls-9" d="M82.4,138.6A56.3,56.3,0,0,0,162,218.2Z" transform="translate(-63.7 -65.2)"/><path class="cls-10" d="M82.8,138.2a56.3,56.3,0,0,0,79.6,79.6Z" transform="translate(-63.7 -65.2)"/><path class="cls-11" d="M83.2,137.8a56.3,56.3,0,0,0,79.6,79.6Z" transform="translate(-63.7 -65.2)"/><path class="cls-12" d="M83.6,137.4A56.3,56.3,0,0,0,163.1,217Z" transform="translate(-63.7 -65.2)"/><path class="cls-13" d="M83.9,137a56.3,56.3,0,0,0,79.6,79.6Z" transform="translate(-63.7 -65.2)"/><path class="cls-14" d="M84.3,136.6a56.3,56.3,0,0,0,79.6,79.6Z" transform="translate(-63.7 -65.2)"/><path class="cls-15" d="M84.7,136.2a56.3,56.3,0,0,0,79.6,79.6Z" transform="translate(-63.7 -65.2)"/><path class="cls-16" d="M85.1,135.8a56.3,56.3,0,0,0,79.6,79.6Z" transform="translate(-63.7 -65.2)"/><path class="cls-17" d="M85.5,135.4A56.3,56.3,0,0,0,165.1,215Z" transform="translate(-63.7 -65.2)"/><path class="cls-18" d="M85.9,135.1a56.3,56.3,0,0,0,79.6,79.6Z" transform="translate(-63.7 -65.2)"/><path class="cls-19" d="M86.3,134.7a56.3,56.3,0,0,0,79.6,79.6Z" transform="translate(-63.7 -65.2)"/><path class="cls-20" d="M86.7,134.3a56.3,56.3,0,0,0,79.6,79.6Z" transform="translate(-63.7 -65.2)"/><path class="cls-21" d="M87.1,133.9a56.3,56.3,0,0,0,79.6,79.6Z" transform="translate(-63.7 -65.2)"/><path class="cls-22" d="M87.5,133.5a56.3,56.3,0,0,0,79.6,79.6Z" transform="translate(-63.7 -65.2)"/><path class="cls-23" d="M87.9,133.1a56.3,56.3,0,0,0,79.6,79.6Z" transform="translate(-63.7 -65.2)"/><path class="cls-24" d="M88.3,132.7a56.3,56.3,0,0,0,79.5,79.6Z" transform="translate(-63.7 -65.2)"/><path class="cls-25" d="M88.6,132.3a56.3,56.3,0,0,0,79.6,79.6Z" transform="translate(-63.7 -65.2)"/><path class="cls-26" d="M89,131.9a56.3,56.3,0,0,0,79.6,79.6Z" transform="translate(-63.7 -65.2)"/><path class="cls-27" d="M89.4,131.5A56.3,56.3,0,0,0,169,211.1Z" transform="translate(-63.7 -65.2)"/><path class="cls-28" d="M89.8,131.1a56.3,56.3,0,0,0,79.6,79.6Z" transform="translate(-63.7 -65.2)"/><path class="cls-29" d="M90.2,130.7a56.3,56.3,0,0,0,79.6,79.6Z" transform="translate(-63.7 -65.2)"/><path class="cls-30" d="M90.6,130.4A56.3,56.3,0,0,0,170.2,210Z" transform="translate(-63.7 -65.2)"/><path class="cls-31" d="M91,130a56.3,56.3,0,0,0,79.6,79.6Z" transform="translate(-63.7 -65.2)"/><path class="cls-32" d="M91.4,129.6A56.3,56.3,0,0,0,171,209.2Z" transform="translate(-63.7 -65.2)"/><path class="cls-33" d="M91.8,129.2a56.3,56.3,0,0,0,79.6,79.6Z" transform="translate(-63.7 -65.2)"/><path class="cls-34" d="M92.2,128.8a56.3,56.3,0,0,0,79.6,79.6Z" transform="translate(-63.7 -65.2)"/><path class="cls-35" d="M92.6,128.4A56.3,56.3,0,0,0,172.2,208Z" transform="translate(-63.7 -65.2)"/><path class="cls-36" d="M93,128a56.3,56.3,0,0,0,79.5,79.6Z" transform="translate(-63.7 -65.2)"/><path class="cls-37" d="M93.3,127.6a56.3,56.3,0,0,0,79.6,79.6Z" transform="translate(-63.7 -65.2)"/><path class="cls-38" d="M93.7,127.2a56.3,56.3,0,0,0,79.6,79.6Z" transform="translate(-63.7 -65.2)"/><path class="cls-39" d="M94.1,126.8a56.3,56.3,0,0,0,79.6,79.6Z" transform="translate(-63.7 -65.2)"/><path class="cls-40" d="M94.5,126.4A56.3,56.3,0,0,0,174.1,206Z" transform="translate(-63.7 -65.2)"/><path class="cls-41" d="M94.9,126a56.3,56.3,0,0,0,79.6,79.6Z" transform="translate(-63.7 -65.2)"/><path class="cls-42" d="M95.3,125.7a56.3,56.3,0,0,0,79.6,79.6Z" transform="translate(-63.7 -65.2)"/><path class="cls-43" d="M95.7,125.3a56.3,56.3,0,0,0,79.6,79.6Z" transform="translate(-63.7 -65.2)"/><path class="cls-44" d="M96.1,124.9a56.3,56.3,0,0,0,79.6,79.6Z" transform="translate(-63.7 -65.2)"/><path class="cls-45" d="M96.5,124.5a56.3,56.3,0,0,0,79.6,79.6Z" transform="translate(-63.7 -65.2)"/><path class="cls-46" d="M96.9,124.1a56.3,56.3,0,0,0,79.6,79.6Z" transform="translate(-63.7 -65.2)"/><path class="cls-47" d="M97.3,123.7a56.3,56.3,0,0,0,79.6,79.6Z" transform="translate(-63.7 -65.2)"/><path class="cls-48" d="M97.6,123.3a56.3,56.3,0,0,0,79.6,79.6Z" transform="translate(-63.7 -65.2)"/><path class="cls-49" d="M98,122.9a56.3,56.3,0,0,0,79.6,79.6Z" transform="translate(-63.7 -65.2)"/><path class="cls-50" d="M98.4,122.5A56.3,56.3,0,0,0,178,202.1Z" transform="translate(-63.7 -65.2)"/><path class="cls-51" d="M98.8,122.1a56.3,56.3,0,0,0,79.6,79.6Z" transform="translate(-63.7 -65.2)"/><path class="cls-52" d="M99.2,121.7a56.3,56.3,0,0,0,79.6,79.6Z" transform="translate(-63.7 -65.2)"/><path class="cls-53" d="M99.6,121.3a56.3,56.3,0,0,0,79.6,79.6Z" transform="translate(-63.7 -65.2)"/><path class="cls-54" d="M100,121a56.3,56.3,0,0,0,79.6,79.6Z" transform="translate(-63.7 -65.2)"/><path class="cls-55" d="M100.4,120.6A56.3,56.3,0,0,0,180,200.2Z" transform="translate(-63.7 -65.2)"/><path class="cls-56" d="M100.8,120.2a56.3,56.3,0,0,0,79.6,79.6Z" transform="translate(-63.7 -65.2)"/><path class="cls-57" d="M101.2,119.8a56.3,56.3,0,0,0,79.6,79.6Z" transform="translate(-63.7 -65.2)"/><path class="cls-58" d="M101.6,119.4A56.3,56.3,0,0,0,181.2,199Z" transform="translate(-63.7 -65.2)"/><path class="cls-59" d="M102,119a56.3,56.3,0,0,0,79.6,79.6Z" transform="translate(-63.7 -65.2)"/><path class="cls-60" d="M102.3,118.6a56.3,56.3,0,0,0,79.6,79.6Z" transform="translate(-63.7 -65.2)"/><path class="cls-61" d="M102.7,118.2a56.3,56.3,0,0,0,79.6,79.6Z" transform="translate(-63.7 -65.2)"/><path class="cls-62" d="M103.1,117.8a56.3,56.3,0,0,0,79.6,79.6Z" transform="translate(-63.7 -65.2)"/><path class="cls-63" d="M103.5,117.4A56.3,56.3,0,0,0,183.1,197Z" transform="translate(-63.7 -65.2)"/><path class="cls-64" d="M103.9,117a56.3,56.3,0,0,0,79.6,79.6Z" transform="translate(-63.7 -65.2)"/><path class="cls-65" d="M104.3,116.7a56.3,56.3,0,0,0,79.6,79.5Z" transform="translate(-63.7 -65.2)"/><path class="cls-66" d="M104.7,116.3a56.3,56.3,0,0,0,79.6,79.6Z" transform="translate(-63.7 -65.2)"/><path class="cls-67" d="M105.1,115.9a56.3,56.3,0,0,0,79.6,79.6Z" transform="translate(-63.7 -65.2)"/><path class="cls-68" d="M105.5,115.5a56.3,56.3,0,0,0,79.6,79.6Z" transform="translate(-63.7 -65.2)"/><path class="cls-69" d="M105.9,115.1a56.3,56.3,0,0,0,79.6,79.6Z" transform="translate(-63.7 -65.2)"/><path class="cls-70" d="M106.3,114.7a56.3,56.3,0,0,0,79.6,79.6Z" transform="translate(-63.7 -65.2)"/><path class="cls-71" d="M106.7,114.3a56.3,56.3,0,0,0,79.6,79.6Z" transform="translate(-63.7 -65.2)"/><path class="cls-72" d="M107,113.9a56.3,56.3,0,0,0,79.6,79.6Z" transform="translate(-63.7 -65.2)"/><path class="cls-73" d="M107.4,113.5A56.3,56.3,0,0,0,187,193.1Z" transform="translate(-63.7 -65.2)"/><path class="cls-74" d="M107.8,113.1a56.3,56.3,0,0,0,79.6,79.6Z" transform="translate(-63.7 -65.2)"/><path class="cls-75" d="M108.2,112.7a56.3,56.3,0,0,0,79.6,79.6Z" transform="translate(-63.7 -65.2)"/><path class="cls-76" d="M108.6,112.3a56.3,56.3,0,0,0,79.6,79.6Z" transform="translate(-63.7 -65.2)"/><path class="cls-77" d="M109,112a56.3,56.3,0,0,0,79.6,79.5Z" transform="translate(-63.7 -65.2)"/><path class="cls-78" d="M109.4,111.6A56.3,56.3,0,0,0,189,191.2Z" transform="translate(-63.7 -65.2)"/><path class="cls-79" d="M109.8,111.2a56.3,56.3,0,0,0,79.6,79.6Z" transform="translate(-63.7 -65.2)"/><path class="cls-80" d="M110.2,110.8a56.3,56.3,0,0,0,79.6,79.6Z" transform="translate(-63.7 -65.2)"/><path class="cls-81" d="M110.6,110.4A56.3,56.3,0,0,0,190.2,190Z" transform="translate(-63.7 -65.2)"/><path class="cls-82" d="M111,110a56.3,56.3,0,0,0,79.6,79.6Z" transform="translate(-63.7 -65.2)"/><path class="cls-83" d="M111.4,109.6A56.3,56.3,0,0,0,191,189.2Z" transform="translate(-63.7 -65.2)"/><path class="cls-84" d="M111.7,109.2a56.3,56.3,0,0,0,79.6,79.6Z" transform="translate(-63.7 -65.2)"/><path class="cls-85" d="M112.1,108.8a56.3,56.3,0,0,0,79.6,79.6Z" transform="translate(-63.7 -65.2)"/><path class="cls-86" d="M112.5,108.4A56.3,56.3,0,0,0,192.1,188Z" transform="translate(-63.7 -65.2)"/><path class="cls-87" d="M112.9,108a56.3,56.3,0,0,0,79.6,79.6Z" transform="translate(-63.7 -65.2)"/><path class="cls-88" d="M113.3,107.6a56.3,56.3,0,0,0,79.6,79.6Z" transform="translate(-63.7 -65.2)"/><path class="cls-89" d="M113.7,107.3a56.3,56.3,0,0,0,79.6,79.5Z" transform="translate(-63.7 -65.2)"/><path class="cls-90" d="M114.1,106.9a56.3,56.3,0,0,0,79.6,79.6Z" transform="translate(-63.7 -65.2)"/><path class="cls-91" d="M114.5,106.5a56.3,56.3,0,0,0,79.6,79.6Z" transform="translate(-63.7 -65.2)"/><path class="cls-92" d="M114.9,106.1a56.3,56.3,0,0,0,79.6,79.6Z" transform="translate(-63.7 -65.2)"/><path class="cls-93" d="M115.3,105.7a56.3,56.3,0,0,0,79.6,79.6Z" transform="translate(-63.7 -65.2)"/><path class="cls-94" d="M115.7,105.3a56.3,56.3,0,0,0,79.6,79.6Z" transform="translate(-63.7 -65.2)"/><path class="cls-95" d="M116.1,104.9a56.3,56.3,0,0,0,79.6,79.6Z" transform="translate(-63.7 -65.2)"/><path class="cls-96" d="M116.4,104.5A56.3,56.3,0,0,0,196,184.1Z" transform="translate(-63.7 -65.2)"/><path class="cls-97" d="M116.8,104.1a56.3,56.3,0,0,0,79.6,79.6Z" transform="translate(-63.7 -65.2)"/><path class="cls-98" d="M117.2,103.7a56.3,56.3,0,0,0,79.6,79.6Z" transform="translate(-63.7 -65.2)"/><path class="cls-99" d="M117.6,103.3a56.3,56.3,0,0,0,79.6,79.6Z" transform="translate(-63.7 -65.2)"/><path class="cls-100" d="M118,102.9a56.3,56.3,0,0,0,79.6,79.6Z" transform="translate(-63.7 -65.2)"/><path class="cls-101" d="M118.4,102.6A56.3,56.3,0,0,0,198,182.1Z" transform="translate(-63.7 -65.2)"/><path class="cls-102" d="M118.8,102.2a56.3,56.3,0,0,0,79.6,79.6Z" transform="translate(-63.7 -65.2)"/><path class="cls-103" d="M119.2,101.8a56.3,56.3,0,0,0,79.6,79.6Z" transform="translate(-63.7 -65.2)"/><path class="cls-104" d="M119.6,101.4A56.3,56.3,0,0,0,199.2,181Z" transform="translate(-63.7 -65.2)"/><path class="cls-105" d="M120,101a56.3,56.3,0,0,0,79.6,79.6Z" transform="translate(-63.7 -65.2)"/><path class="cls-106" d="M120.4,100.6A56.3,56.3,0,0,0,200,180.2Z" transform="translate(-63.7 -65.2)"/><path class="cls-107" d="M120.8,100.2a56.3,56.3,0,0,0,79.5,79.6Z" transform="translate(-63.7 -65.2)"/><path class="cls-108" d="M121.1,99.8a56.3,56.3,0,0,0,79.6,79.6Z" transform="translate(-63.7 -65.2)"/><path class="cls-109" d="M121.5,99.4A56.3,56.3,0,0,0,201.1,179Z" transform="translate(-63.7 -65.2)"/><path class="cls-110" d="M121.9,99a56.3,56.3,0,0,0,79.6,79.6Z" transform="translate(-63.7 -65.2)"/><path class="cls-111" d="M122.3,98.6a56.3,56.3,0,0,0,79.6,79.6Z" transform="translate(-63.7 -65.2)"/><path class="cls-112" d="M122.7,98.2a56.3,56.3,0,0,0,79.6,79.6Z" transform="translate(-63.7 -65.2)"/><path class="cls-113" d="M123.1,97.9a56.3,56.3,0,0,0,79.6,79.5Z" transform="translate(-63.7 -65.2)"/><path class="cls-114" d="M123.5,97.5a56.3,56.3,0,0,0,79.6,79.6Z" transform="translate(-63.7 -65.2)"/><path class="cls-115" d="M123.9,97.1a56.3,56.3,0,0,0,79.6,79.6Z" transform="translate(-63.7 -65.2)"/><path class="cls-116" d="M124.3,96.7a56.3,56.3,0,0,0,79.6,79.6Z" transform="translate(-63.7 -65.2)"/><path class="cls-117" d="M124.7,96.3a56.3,56.3,0,0,0,79.6,79.6Z" transform="translate(-63.7 -65.2)"/><path class="cls-118" d="M125.1,95.9a56.3,56.3,0,0,0,79.6,79.6Z" transform="translate(-63.7 -65.2)"/><path class="cls-119" d="M125.5,95.5A56.3,56.3,0,0,0,205,175.1Z" transform="translate(-63.7 -65.2)"/><path class="cls-120" d="M125.8,95.1a56.3,56.3,0,0,0,79.6,79.6Z" transform="translate(-63.7 -65.2)"/><path class="cls-121" d="M126.2,94.7a56.3,56.3,0,0,0,79.6,79.6Z" transform="translate(-63.7 -65.2)"/><path class="cls-122" d="M126.6,94.3a56.3,56.3,0,0,0,79.6,79.6Z" transform="translate(-63.7 -65.2)"/><path class="cls-123" d="M127,93.9a56.3,56.3,0,0,0,79.6,79.6Z" transform="translate(-63.7 -65.2)"/><path class="cls-124" d="M127.4,93.5A56.3,56.3,0,0,0,207,173.1Z" transform="translate(-63.7 -65.2)"/><path class="cls-125" d="M127.8,93.2a56.3,56.3,0,0,0,79.6,79.5Z" transform="translate(-63.7 -65.2)"/><path class="cls-126" d="M128.2,92.8a56.3,56.3,0,0,0,79.6,79.6Z" transform="translate(-63.7 -65.2)"/><path class="cls-127" d="M128.6,92.4A56.3,56.3,0,0,0,208.2,172Z" transform="translate(-63.7 -65.2)"/><path class="cls-128" d="M129,92a56.3,56.3,0,0,0,79.6,79.6Z" transform="translate(-63.7 -65.2)"/><path class="cls-129" d="M129.4,91.6A56.3,56.3,0,0,0,209,171.2Z" transform="translate(-63.7 -65.2)"/><path class="cls-130" d="M129.8,91.2a56.3,56.3,0,0,0,79.6,79.6Z" transform="translate(-63.7 -65.2)"/><path class="cls-131" d="M130.2,90.8a56.3,56.3,0,0,0,79.5,79.6Z" transform="translate(-63.7 -65.2)"/><path class="cls-132" d="M130.5,90.4A56.3,56.3,0,0,0,210.1,170Z" transform="translate(-63.7 -65.2)"/><path class="cls-133" d="M130.9,90a56.3,56.3,0,0,0,79.6,79.6Z" transform="translate(-63.7 -65.2)"/><path class="cls-134" d="M131.3,89.6a56.3,56.3,0,0,0,79.6,79.6Z" transform="translate(-63.7 -65.2)"/><path class="cls-135" d="M131.7,89.2a56.3,56.3,0,0,0,79.6,79.6Z" transform="translate(-63.7 -65.2)"/><path class="cls-136" d="M132.1,88.8a56.3,56.3,0,0,0,79.6,79.6Z" transform="translate(-63.7 -65.2)"/><path class="cls-137" d="M132.5,88.5A56.3,56.3,0,0,0,212.1,168Z" transform="translate(-63.7 -65.2)"/><path class="cls-138" d="M132.9,88.1a56.3,56.3,0,0,0,79.6,79.6Z" transform="translate(-63.7 -65.2)"/><path class="cls-139" d="M133.3,87.7a56.3,56.3,0,0,0,79.6,79.6Z" transform="translate(-63.7 -65.2)"/><path class="cls-140" d="M133.7,87.3a56.3,56.3,0,0,0,79.6,79.6Z" transform="translate(-63.7 -65.2)"/><path class="cls-141" d="M134.1,86.9a56.3,56.3,0,0,0,79.6,79.6Z" transform="translate(-63.7 -65.2)"/><path class="cls-142" d="M134.5,86.5a56.3,56.3,0,0,0,79.6,79.6Z" transform="translate(-63.7 -65.2)"/><path class="cls-143" d="M134.9,86.1a56.3,56.3,0,0,0,79.5,79.6Z" transform="translate(-63.7 -65.2)"/><path class="cls-144" d="M135.2,85.7a56.3,56.3,0,0,0,79.6,79.6Z" transform="translate(-63.7 -65.2)"/><path class="cls-145" d="M135.6,85.3a56.3,56.3,0,0,0,79.6,79.6Z" transform="translate(-63.7 -65.2)"/><path class="cls-146" d="M136,84.9a56.3,56.3,0,0,0,79.6,79.6Z" transform="translate(-63.7 -65.2)"/><path class="cls-147" d="M136.4,84.5A56.3,56.3,0,0,0,216,164.1Z" transform="translate(-63.7 -65.2)"/><path class="cls-148" d="M136.8,84.1a56.3,56.3,0,0,0,79.6,79.6Z" transform="translate(-63.7 -65.2)"/><path class="cls-149" d="M137.2,83.8a56.3,56.3,0,0,0,79.6,79.6Z" transform="translate(-63.7 -65.2)"/><path class="cls-150" d="M137.6,83.4A56.3,56.3,0,0,0,217.2,163Z" transform="translate(-63.7 -65.2)"/><path class="cls-151" d="M138,83a56.3,56.3,0,0,0,79.6,79.6Z" transform="translate(-63.7 -65.2)"/><path class="cls-152" d="M138.4,82.6A56.3,56.3,0,0,0,218,162.2Z" transform="translate(-63.7 -65.2)"/><path class="cls-153" d="M138.8,82.2a56.3,56.3,0,0,0,79.6,79.6Z" transform="translate(-63.7 -65.2)"/><path class="cls-154" d="M139.2,81.8a56.3,56.3,0,0,0,79.6,79.6Z" transform="translate(-63.7 -65.2)"/></g><circle class="cls-155" cx="115.4" cy="56.3" r="56.3"/><path class="cls-156" d="M235.4,121.5a56.3,56.3,0,0,1-33.9,51.6A56.3,56.3,0,0,0,177.4,66,55.7,55.7,0,0,0,155,70.6a55.6,55.6,0,0,1,24.1-5.4A56.3,56.3,0,0,1,235.4,121.5Z" transform="translate(-63.7 -65.2)"/><path class="cls-157" d="M177.7,79.6A19.8,19.8,0,1,1,157.9,100C157.6,88.5,167.2,79.4,177.7,79.6ZM192,100.3c-1,0-2,.1-3,0s-.5.1-.6.6a28.7,28.7,0,0,1-.7,5.8.5.5,0,0,0,.4.6l3.2,1.3c.4.2.9.7,1.2.6s.6-.8.8-1.2a17.8,17.8,0,0,0,2.2-7.1c0-.4-.1-.6-.5-.6S193,100.3,192,100.3Zm-28.5,0h-3c-.5,0-.6.1-.6.6a20,20,0,0,0,.4,2.4,15.7,15.7,0,0,0,2.3,5.5c.2.4.4.5.8.3a13.8,13.8,0,0,1,3.9-1.8c.4-.1.4-.2.4-.6a28.7,28.7,0,0,1-.7-5.8c0-.5-.2-.6-.6-.6A28,28,0,0,1,163.5,100.3ZM192,98.4h3c.4,0,.5-.1.5-.5a25.6,25.6,0,0,0-.5-2.7,16.5,16.5,0,0,0-2.2-5.3c-.2-.3-.3-.4-.6-.3a20,20,0,0,1-4.2,1.9c-.2,0-.3.2-.3.5a28.8,28.8,0,0,1,.7,5.9c.1.4.2.5.6.5Zm-28.5,0h2.8c.6,0,.6,0,.7-.6a28.7,28.7,0,0,1,.7-5.8c.1-.3-.1-.4-.4-.6a16.5,16.5,0,0,1-3.9-1.7c-.4-.2-.6-.2-.8.3a18.2,18.2,0,0,0-2.7,7.9c0,.4.1.5.5.5Zm9.4,1.9h-3.4c-.6,0-.6.1-.6.6a39.6,39.6,0,0,0,.6,5.1c.2.7.2.7.8.5a38.1,38.1,0,0,1,5.9-.7c.4,0,.5-.2.5-.6v-4.3c0-.5-.1-.6-.5-.6S174,100.3,172.9,100.3Zm9.7,0c-1.1,0-2.2.1-3.3,0s-.6.1-.6.6v4.3c0,.4.1.6.5.6h.9a29.7,29.7,0,0,1,5.2.8c.3,0,.5,0,.5-.3a33.3,33.3,0,0,0,.7-5.4c0-.4-.1-.6-.5-.6S183.7,100.3,182.6,100.3Zm-9.8-1.9h3.4c.4,0,.5-.1.5-.5V93.5c0-.4-.1-.5-.4-.5h-2.2l-4-.7c-.2,0-.4,0-.5.3a33.1,33.1,0,0,0-.7,5.5c0,.3.2.4.5.4Zm9.8,0h3.2c.7,0,.7,0,.7-.7a40.2,40.2,0,0,0-.6-5c-.1-.5-.3-.5-.7-.5a30.9,30.9,0,0,1-6.1.8c-.3,0-.4.1-.4.5v4.4c0,.4.1.5.5.5Zm-5.9,14v-4.1c0-.6,0-.6-.6-.6a30.7,30.7,0,0,0-5.3.7c-.6.1-.6.2-.4.7a15.9,15.9,0,0,0,2.8,5.5,7.1,7.1,0,0,0,3,2.4c.5.1.5.1.5-.4Zm3.1-4.7c-1.2,0-1.1,0-1.1.9-.1,2.7,0,5.4-.1,8.1,0,.3.1.4.4.3a4.4,4.4,0,0,0,2.3-1.5,15.3,15.3,0,0,0,3.8-6.5c.1-.4,0-.5-.3-.6A49.9,49.9,0,0,0,179.8,107.7Zm-3.1-21.3V82.1c0-.4-.1-.4-.4-.3a6.1,6.1,0,0,0-2.2,1.3,16,16,0,0,0-3.8,6.7c-.1.3,0,.5.3.5a34.3,34.3,0,0,0,5.6.8c.4,0,.5-.2.5-.6Zm2,0v4.1c0,.4.1.6.5.6a34.3,34.3,0,0,0,5.6-.8c.3,0,.4-.2.3-.5a18.2,18.2,0,0,0-2.7-5.4,7.4,7.4,0,0,0-3.2-2.6c-.5-.2-.5-.1-.5.4Zm4.8-3.9.3.5,1.3,1.8a24.4,24.4,0,0,1,1.9,4.4c.1.4.3.5.7.3a22.2,22.2,0,0,0,3.2-1.4c.3-.1.4-.3.1-.6a17.9,17.9,0,0,0-4.3-3.5A15.7,15.7,0,0,0,183.5,82.5Zm-11.6.1h-.2a16.8,16.8,0,0,0-7.3,5c-.3.2-.2.3.1.5a18.3,18.3,0,0,0,3.2,1.4c.4.2.6.1.7-.3a18.8,18.8,0,0,1,3-6Zm-.1,33.6c-.6-.9-1.3-1.9-1.8-2.8a30.8,30.8,0,0,1-1.6-3.8c-.1-.4-.2-.5-.7-.4l-3.2,1.4c-.3.2-.3.4-.1.7l2.6,2.3A18.7,18.7,0,0,0,171.8,116.2Zm11.7,0h.4a18.9,18.9,0,0,0,7.2-4.9c.2-.3.1-.4-.2-.6l-3.3-1.4c-.4-.1-.5,0-.6.3A18.8,18.8,0,0,1,183.5,116.2Z" transform="translate(-63.7 -65.2)"/><path class="cls-157" d="M180.6,157.2c-3.8,0-6.4.1-9,0l-9.3-.2-8.4-.6a40.1,40.1,0,0,1-5-.7,3.1,3.1,0,0,1-2.4-2.3,13.4,13.4,0,0,1-.5-3,44.7,44.7,0,0,1,1-9.6c.5-3,1.2-5.9,1.9-8.8a12,12,0,0,1,4.3-6.3,24.3,24.3,0,0,1,5.3-2.8l5.3-2.5,3.8-1.7c1-.5,1.6,0,1.5,1.1s-.4,5-.7,7.5a4.5,4.5,0,0,0,.4,2.3c2.6,6.1,5.2,12.3,7.9,18.4a6.1,6.1,0,0,0,.5,1.2c.1.2.2.5.5.5s.4-.3.6-.6.9-2.2,1.4-3.3l6.6-15.4a8.8,8.8,0,0,0,.5-1.5,5.3,5.3,0,0,0,.1-2.5l-.6-6.7a.9.9,0,0,1,1.4-1l6.4,2.9c1.9.9,3.9,1.6,5.7,2.6a14,14,0,0,1,5.6,5.2,9.9,9.9,0,0,1,1.2,3,105.9,105.9,0,0,1,2.3,11.2,37.1,37.1,0,0,1,.5,6.7,9.5,9.5,0,0,1-.8,3.7,2.5,2.5,0,0,1-1.4,1.3,13.7,13.7,0,0,1-3.5.8,49.3,49.3,0,0,1-6.6.7l-9,.4C185.2,157.3,182.3,157.2,180.6,157.2Zm5.1-2h5l8.9-.4,5.9-.7a2,2,0,0,0,1.7-1.8,8.9,8.9,0,0,0,.3-2.8,57,57,0,0,0-1-8.3c-.5-2.7-1.1-5.3-1.7-8a10,10,0,0,0-1.5-3.5,14.5,14.5,0,0,0-5.1-4.1l-5.2-2.2-4.2-2c-.2-.1-.5-.3-.4.2s.3,3.2.5,4.8a7.8,7.8,0,0,1-.4,3.7c-.7,1.6-1.3,3.3-2,4.9l-5,11.6a17.6,17.6,0,0,1-1.7,3.7c-1.1,1.9-2.6,2.2-4,.4l-.5-.7-3.9-9.2c-1.4-3.5-2.9-7-4.4-10.5a5.4,5.4,0,0,1-.5-2.8c.1-2,.3-3.9.5-5.8,0-.1.1-.3,0-.4s-.3,0-.4.1l-6.9,3.2a21.6,21.6,0,0,0-5.4,2.9,9.5,9.5,0,0,0-3.3,4.4c-.3,1-.5,2-.8,3-.6,2.5-1.1,4.9-1.5,7.4a51.7,51.7,0,0,0-.7,5.5,18.8,18.8,0,0,0,.1,4.1,2.8,2.8,0,0,0,.4,1.2,1.2,1.2,0,0,0,1,.8l1.6.4c3.1.4,6.3.6,9.4.7l5,.2,8.1.2Z" transform="translate(-63.7 -65.2)"/><path class="cls-157" d="M177.7,121h4.7a1,1,0,0,1,.8,1.7c-.6.9-1.2,1.7-1.7,2.6a6.1,6.1,0,0,0-.7,1c-.3.3-.2.5,0,.8l1.6,2.4a1.2,1.2,0,0,1,.1,1c-1.2,4.7-2.5,9.4-3.8,14.1a1.1,1.1,0,0,1-.8.9,1,1,0,0,1-1.2-.8l-.9-3.3c-.8-3.1-1.6-6.2-2.5-9.3-.1-.5-.3-1.1-.4-1.6a1.2,1.2,0,0,1,.1-1c.5-.7,1-1.6,1.6-2.3a.7.7,0,0,0,0-.9c-.8-1.1-1.5-2.3-2.2-3.4a1.3,1.3,0,0,1-.3-1.3,1.2,1.2,0,0,1,1.2-.6Zm0,19.6h.1l.6-2.3,2.1-7.6a1.2,1.2,0,0,0-.2-.8l-1.6-2.4a1.2,1.2,0,0,1,0-1.6c.5-.8,1.1-1.6,1.6-2.5s.2-.2.2-.3H175c-.1.1,0,.2.1.3s1.1,1.7,1.6,2.5a1.2,1.2,0,0,1,.1,1.5l-1.7,2.5a.8.8,0,0,0-.1.8c.6,2.5,1.3,5,2,7.5A21.7,21.7,0,0,0,177.7,140.6Z" transform="translate(-63.7 -65.2)"/></g></g></svg>